<svg version="1.2" baseProfile="tiny" xmlns="http://www.w3.org/2000/svg" xmlns:xlink="http://www.w3.org/1999/xlink"
	x="0px" y="0px" xml:space="preserve">
	<g id="namecard">
		<path fill="none" d="M27.8,20.1L27.8,20.1l-0.1,1.2h0.8c-0.1-0.3-0.3-0.6-0.4-0.9C28.1,20.3,28,20.1,27.8,20.1z"/>
		<path fill="none" d="M14.6,20.6c-0.1,0.2-0.2,0.5-0.3,0.7H15v-1.2C14.8,20.2,14.7,20.4,14.6,20.6z"/>
		<polygon fill="none" points="22,23.8 22.3,23.6 21.8,23.6 "/>
		<path d="M31.1,19c-0.8-2.2-2.1-2.4-4.1-3.2c-0.2-0.1-0.4-0.2-0.6-0.4c-0.4,0-0.6-0.3-0.8-0.6c-0.7-0.9-1.2-1.1-1.7-2.1
			c-0.4-0.8-0.3-1.4,0.3-2.1c1.3-1.4,1.5-3,1.3-4.8c0-0.1,0-0.1,0-0.2c-0.1,0-0.2-0.1-0.3-0.1c-0.1,0-0.3-0.1-0.4,0
			c-0.6,0.4-1.3-0.2-1.9,0.3l-0.1,0.1c-0.1,0-0.8,1-0.8,0.8c-0.1-0.3-0.1-0.5,0.2-0.7c0.6-0.5,1.2-1.1,1.9-1.5c0.1,0,0.2,0,0.2-0.1
			C24.4,4.1,24.7,4,25,3.9c-0.5-1-1.5-1.7-2.8-1.8c-2.9-0.3-4.1,1-4.4,2.3c-0.5,2.4-0.8,4.2,1.1,6.2c0.3,0.4,0.6,0.8,0.4,1.3
			c-0.6,1.6-1.5,2.3-2.7,3.6c-0.1,0-0.1-0.1-0.1-0.1c-0.1,0.1-0.2,0.2-0.3,0.2c-0.4,0.2-0.9,0.2-1.4,0.4c-1.4,0.4-2.1,1.5-2.6,2.8
			l9.5,5.5h0.5l8.9-5.1C31.2,19.1,31.1,19,31.1,19z"/>
		<path d="M2.4,27.3c0.3-0.1,0.6,0,0.9,0c0.4,0,0.5,0,0.6-0.4C4,26.8,4,26.6,4.1,26.4c-0.3-0.1-0.5-0.3-0.5-0.7V10.4
			c0-0.4,0.3-0.7,0.7-0.7h8.8l0.8-3.5H4.3C2,6.1,0.2,8,0.2,10.3v15.4c0,0.6,0.1,1.2,0.4,1.7C1.1,27.5,1.8,27.5,2.4,27.3z"/>
		<path d="M28.7,24.6v1.1c0,0.4-0.3,0.7-0.7,0.7H4.3l0,0c0,0.2-0.1,0.4,0,0.6c0.1,0.3-0.2,0.4-0.4,0.6c-0.4,0.3-0.9,0.5-1.3,0.8
			c-0.3,0.2-0.7,0.3-1,0.5C2.3,29.6,3.3,30,4.4,30H28c2.3,0,4.2-1.9,4.2-4.2v-3.1L28.7,24.6z"/>
	</g>
	<g id="luggage">
		<polygon points="12.8,1.4 9.5,5.6 12.7,10.5 14.5,10.6 12.3,5.6 14.1,3.2 14.1,3.2 14.9,4.1 17.2,4.1 17.9,3.1 18,3.1 19.9,5.9 
		17.4,10.6 19.2,10.6 22.5,5.7 19.3,1.4 	"/>
		<g>
			<path d="M3.1,28c0.4,0,0.5,0,0.6-0.4c0.1-0.2,0.1-0.4,0.2-0.6c-0.3-0.1-0.5-0.3-0.5-0.7V12.1V11c0-0.4,0.3-0.7,0.7-0.7h23.8l0,0
				c0-0.2,0.1-0.4,0-0.6c-0.1-0.3,0.2-0.4,0.4-0.6c0.4-0.3,0.9-0.5,1.3-0.8c0.3-0.2,0.7-0.3,1-0.5c-0.7-0.7-1.7-1.1-2.8-1.1H13.7H4.2
				C1.9,6.8,0,8.7,0,11v3.1v12.4c0,0.6,0.1,1.2,0.4,1.7c0.6,0,1.2,0,1.8-0.1C2.5,28,2.8,28,3.1,28z"/>
			<path d="M31.6,9.3c-0.6,0-1.2,0-1.8,0.1c-0.3,0.1-0.6,0-0.9,0c-0.4,0-0.5,0-0.6,0.4c-0.1,0.2-0.1,0.4-0.2,0.6
				c0.3,0.1,0.5,0.3,0.5,0.7v14.3v1.1c0,0.4-0.3,0.7-0.7,0.7H4.1l0,0c0,0.2-0.1,0.4,0,0.6c0.1,0.3-0.2,0.4-0.4,0.6
				c-0.4,0.3-0.9,0.5-1.3,0.8c-0.3,0.2-0.7,0.3-1,0.5c0.7,0.7,1.7,1.1,2.8,1.1h14.1h9.5c2.3,0,4.2-1.9,4.2-4.2v-3.1V11
				C32,10.4,31.9,9.8,31.6,9.3z"/>
		</g>
		<path d="M29.4,16.1l-0.5-5.6l-1.3-0.3c0,0-17.2-1-17.4-1S3.7,9.3,3.5,9.3s-1,1.7-1,1.7l0.6,5.2l3.5,3.1h9.2c0,0-0.1,0-0.1-0.1
			L11,14.4c-0.2-0.2,0.1-0.6,0.3-0.4l4.6,2.1c0.1,0.1,0.2,0.1,0.3,0l4.6-2.1c0.3-0.2,0.6,0.2,0.3,0.4l-4.8,4.8c0,0-0.1,0-0.1,0.1H25
			L29.4,16.1z"/>
		<path d="M16.1,19.3h-0.2C16,19.3,16,19.3,16.1,19.3z"/>
		<path d="M28.9,28c-0.4,0-0.5,0-0.6-0.4c-0.1-0.2-0.1-0.4-0.2-0.6c0.3-0.1,0.5-0.3,0.5-0.7V12.1V11c0-0.4-0.3-0.7-0.7-0.7H4.1l0,0
			c0-0.2-0.1-0.4,0-0.6c0.1-0.3-0.2-0.4-0.4-0.6C3.3,8.9,2.9,8.6,2.4,8.4C2,8.3,1.7,8.1,1.4,7.9c0.7-0.7,1.7-1.1,2.8-1.1h14.1h9.5
			c2.3,0,4.2,1.9,4.2,4.2v3.1v12.4c0,0.6-0.1,1.2-0.4,1.7c-0.6,0-1.2,0-1.8-0.1C29.5,28,29.2,28,28.9,28z"/>
	</g>
	<g id="world">
		<path d="M30,16.4l-2.1,2.1l-2.1-2.1h-1.7L23.5,17l-3.1-3v-1.4h-3l-1.7-1.7L13.6,13h2.3l0.9,0.9h2.4l4,4v1.3l-2.4,2.4v3.9l-2.9,2.9
			h-1.2l-1.9-1.9v-5L13.5,20h-2.1l-2.2-2.2v-2.3l3-2.5v-2.8l4.9-4.9l1.5,1.5H22l2.5-2.5c-2.4-1.7-5.3-2.8-8.5-2.8
			c-3,0-5.7,0.9-8,2.4h6.4l-3,3h-2L8,8.4H6.8V4.8c-0.7,0.6-1.4,1.3-2,2v3.1L2,12.8c-0.2,1-0.3,2-0.3,3.1c0,0.4,0,0.8,0.1,1.2L8.3,22
			v2.3l-2,2c2.6,2.4,6.1,3.9,9.9,3.9c7.7,0,13.9-6,14.4-13.6L30,16.4z M22.1,25.2h-0.8v-3.7h0.8V25.2z"/>
		<path fill="none" d="M29.9,16c0-7.6-6.2-13.8-13.8-13.8C8.4,2.2,2.2,8.4,2.2,16c0,4.8,2.4,9,6.1,11.5c0.4,0,0.8-0.1,1.2-0.2
			s0.8,0,1.2,0c0.5,0,0.7,0,0.8-0.5c0.3-0.8,0.4-1.7,0.5-2.5c0-0.2,0.1-0.3,0.2-0.5c0.1,0.6,0,1.2-0.2,1.8c-0.1,0.4-0.2,0.8-0.1,1.3
			c0.1,0.4-0.2,0.6-0.5,0.7c-0.4,0.3-0.9,0.6-1.4,0.8c1.8,0.9,3.8,1.4,6,1.4C23.7,29.8,29.9,23.6,29.9,16z"/>
		<path d="M16,0C7.2,0,0,7.2,0,16c0,4.9,2.2,9.2,5.6,12.2c0.2-0.5,0.5-0.7,1.1-0.6c0.5,0,1.1,0,1.6,0C4.6,25,2.2,20.8,2.2,16
			C2.2,8.4,8.4,2.2,16,2.2S29.8,8.4,29.8,16S23.6,29.8,16,29.8c-2.1,0-4.1-0.5-6-1.4c-0.1,0-0.2,0.1-0.3,0.2c-0.7,0.3-1.3,0.7-2,1
			c0,0,0,0-0.1,0C10.2,31.2,13,32,16,32c8.8,0,16-7.2,16-16S24.8,0,16,0z"/>
	</g>
	<g id="shield">
		<polygon fill="none" points="20.8,8 17,-3.8 13.2,8 0.7,8 10.8,15.3 6.9,27.2 17,19.8 27.1,27.2 23.2,15.3 33.3,8 "/>
		<polygon fill="none" points="20.8,8 17,-3.8 13.2,8 0.7,8 10.8,15.3 6.9,27.2 17,19.8 27.1,27.2 23.2,15.3 33.3,8 "/>
		<path d="M28.8,2.3c-0.2-0.2-0.5-0.1-0.8,0c0.6,0.2,0.9,0.6,1.3,0.9c-0.4,0-0.6-0.2-1-0.3c-0.1,0-0.3-0.1-0.4,0
			c-0.6,0.4-1.3,0.5-1.9,1L25.9,4c-0.1,0-0.8-0.4-0.8-0.6C25,3.1,25,2.9,25.3,2.7c0.6-0.5,1.2-1.1,2-1.5c0.1,0,0.2,0,0.2-0.1
			c0.1-0.4,0.4-0.6,0.9-0.6c0.4,0,0.7,0,1.1,0c-0.5-0.4-1.2-0.6-1.9-0.6H5.3c-1.9,0-3.5,1.6-3.5,3.5v17.9c0,1.1,0.5,2,1.2,2.7v0.3
			l4.4,2.5c0.2-0.3,0.6-0.5,1.1-0.4c1.1,0,2.1,0,3.2-0.2c0.4-0.1,0.9-0.1,1.3,0c0.5,0.1,0.8,0,0.9-0.5c0.3-0.9,0.4-1.9,0.6-2.9
			c0-0.2,0.1-0.4,0.2-0.5c0.1,0.7,0,1.4-0.2,2.1c-0.1,0.5-0.3,0.9-0.2,1.4c0.1,0.4-0.3,0.6-0.5,0.8c-0.6,0.4-1.2,0.8-1.9,1.1
			c-0.6,0.3-1.1,0.5-1.7,0.9l6.1,3.5l13.4-7.7v-0.2c0.8-0.6,1.3-1.6,1.3-2.7V3.6c0-0.7-0.2-1.4-0.6-1.9c-0.4,0.2-0.8,0.4-1.2,0.7
			C29.1,2.4,29,2.4,28.8,2.3z M23.9,23.8l-7-5.1l-7,5.1l2.7-8.3l-7-5.1h8.7L17,2.1l2.7,8.3h8.7l-7,5.1L23.9,23.8z"/>
	</g>
</svg>
