<svg version="1.2" baseProfile="tiny" xmlns="http://www.w3.org/2000/svg" xmlns:xlink="http://www.w3.org/1999/xlink"
	 x="0px" y="0px" xml:space="preserve">
	<defs>
		<g id="offense">
			<title>Offense</title>
			<g>
				<rect x="2.1" y="28.1" width="7.1" height="3.9"/>
				<path d="M9.1,7c0,0,0-0.5,0-0.7C8.6,1.5,5.6,0,5.6,0s-3,1.5-3.5,6.3c0,0.2,0,0.7,0,0.7v18.4h3.5h3.5V7z"/>
			</g>
			<g>
				<rect x="12.5" y="28.1" width="7.1" height="3.9"/>
				<path d="M19.5,7c0,0,0-0.5,0-0.7C19,1.5,16,0,16,0s-3,1.5-3.5,6.3c0,0.2,0,0.7,0,0.7v18.4H16h3.5V7z"/>
			</g>
			<g>
				<rect x="22.9" y="28.1" width="7.1" height="3.9"/>
				<path d="M29.9,7c0,0,0-0.5,0-0.7C29.4,1.5,26.4,0,26.4,0s-3,1.5-3.5,6.3c0,0.2,0,0.7,0,0.7v18.4h3.5h3.5V7z"/>
			</g>
		</g>
		<g id="support">
			<title>Support</title>
			<path fill-rule="evenodd" d="M29.3,10.2h-7.5V2.7c0-1.5-1.2-2.7-2.7-2.7h-6.3c-1.5,0-2.7,1.2-2.7,2.7v7.5H2.7
		c-1.5,0-2.7,1.2-2.7,2.7v6.3c0,1.5,1.2,2.7,2.7,2.7h7.5v7.5c0,1.5,1.2,2.7,2.7,2.7h6.3c1.5,0,2.7-1.2,2.7-2.7v-7.5h7.5
		c1.5,0,2.7-1.2,2.7-2.7v-6.3C32,11.4,30.8,10.2,29.3,10.2z"/>
		</g>
		<g id="tank">
			<title>Tank</title>
			<path d="M29,10.7c0,2.1,0,4.1,0,6.2c0,0.6-0.1,1.1-0.4,1.6c-2.9,5.3-6.8,9.7-11.8,13.2c-0.6,0.4-1,0.4-1.6,0
		c-4.9-3.4-8.8-7.8-11.7-13c-0.3-0.6-0.4-1.2-0.4-1.8c0-3.9,0.1-7.8,0-11.7C3,2.3,5.2,1.9,7.1,1.4C10.4,0.6,13.3,0,16.6,0
		c3.1,0,7.7,1.1,9.4,1.6c1.3,0.4,2.7,0.9,2.9,2.2C29,4.9,28.9,6,29,7.1C29,8.3,29,9.5,29,10.7C29,10.7,29,10.7,29,10.7z"/>
		</g>
		<g id="defense">
			<title>Defense</title>
			<path d="M16,10.8c-2,0-4,0-6.1,0c-1.7,0-3.1-1.4-3.1-3.1c0-2,0-3.9,0-5.9c0-1,0.8-1.8,1.7-1.8c0.3,0-0.1,0,0.2,0
				C10,0,9.9,1.3,9.9,1.6c0,0.7,0,0.3,0,1c0,0.3,0.1,0.4,0.4,0.4c0.7,0,1.5,0,2.2,0c0.2,0,0.4-0.2,0.4-0.4c0-0.4,0-0.8,0-1.2
				c0-0.8,0.7-1.4,1.4-1.4c1.4,0,2,0,3.4,0c1.1,0,1.4,1.2,1.3,1.5c0,0.7,0,0.4,0,1.1c0,0.3,0.1,0.5,0.5,0.5c0.7,0,1.4,0,2.1,0
				c0.4,0,0.5-0.1,0.5-0.5c0-0.7,0-0.7,0-1.4c0-0.3,0.1-1.2,1.3-1.2c0.4,0-0.1,0,0.4,0c0.8,0,1.4,0.7,1.4,1.5c0,2.1,0,4.3,0,6.4
				c0,1.5-1.4,2.8-2.9,2.8C20.2,10.8,18.1,10.8,16,10.8z"/>
			<path d="M28.2,27.4c0-1-0.6-1.6-1.6-1.6c-0.5,0-1.7-0.1-2.1-0.6c-1.3-1.6-1.8-3.2-2.1-5.2c-0.4-2.4-0.3-3.8-0.4-6.2
				c0-0.6,0-0.6-0.6-0.6c-3.7,0-7.3,0-11,0c-0.7,0-0.7,0-0.7,0.7c0,2.4,0,3.7-0.4,6.1c-0.3,1.9-0.8,3.8-2.2,5.3
				c-0.3,0.3-1.4,0.5-2,0.5c-1,0-1.6,0.6-1.6,1.6c0,0.9,0,1.8,0,2.8c0,1.2,0.6,1.8,1.8,1.8c3.5,0,7,0,10.4,0c3.5,0,7,0,10.5,0
				c1.1,0,1.7-0.6,1.7-1.7C28.2,29.3,28.3,28.4,28.2,27.4z"/>
		</g>
	</defs>
</svg> 
