<svg version="1.2" baseProfile="tiny" xmlns="http://www.w3.org/2000/svg" xmlns:xlink="http://www.w3.org/1999/xlink"
	x="0px" y="0px" xml:space="preserve">
	<defs id="nav">
		<g id="close">
			<path d="M29.17,25.35l-2.77,2.77c-1.17,1.17-3.08,1.17-4.24,0L2.63,8.61c-1.17-1.17-1.17-3.08,0-4.24L5.4,1.59
				c1.17-1.17,3.08-1.17,4.24,0l19.52,19.52C30.33,22.28,30.33,24.19,29.17,25.35z"/>
			<path d="M29.17,4.37l-2.77-2.77c-1.17-1.17-3.08-1.17-4.24,0L2.63,21.11c-1.17,1.17-1.17,3.08,0,4.24l2.77,2.77
				c1.17,1.17,3.08,1.17,4.24,0L29.17,8.61C30.33,7.44,30.33,5.53,29.17,4.37z"/>
		</g>

		<g id="magnifier">
			<path d="M12.98,0C5.81,0,0,5.81,0,12.98c0,7.17,5.81,12.98,12.98,12.98c7.17,0,12.98-5.81,12.98-12.98C25.97,5.81,20.15,0,12.98,0z
				 M12.98,23.06c-5.56,0-10.07-4.51-10.07-10.07c0-5.56,4.51-10.07,10.07-10.07c5.56,0,10.07,4.51,10.07,10.07
				C23.06,18.55,18.55,23.06,12.98,23.06z"/>
			<circle cx="13.12" cy="11.48" r="4.16"/>
			<path d="M18.08,18.49c0,1.27-2.22,2.3-4.96,2.3s-4.96-1.03-4.96-2.3c0-1.27,2.22-1.64,4.96-1.64S18.08,17.21,18.08,18.49z"/>
			<path d="M31.25,31.25L31.25,31.25c-1,1-2.64,1-3.65,0l-7.87-7.87c-1-1,0-1.64,1-2.65l0,0c1-1,1.64-2,2.65-1l7.87,7.87
				C32.25,28.6,32.25,30.25,31.25,31.25z"/>
		</g>
	</defs>
</svg>
