<svg version="1.2" baseProfile="tiny" xmlns="http://www.w3.org/2000/svg" xmlns:xlink="http://www.w3.org/1999/xlink"
	x="0px" y="0px" xml:space="preserve">
	<defs id="career-subnav">
		<g id="trophy">
			<path d="M16.1,5.1h-4.6c0,0-2.1,0.1-2.1,2.1c0,0-0.9,9.2,5.4,13.4v2.4c0,0-4.4,1-4.4,3.9H16
				C16,26.8,16.1,5,16.1,5.1z"/>
			<path d="M10,9.5H5.6c0,0-1.5,0-1.5,2.5c0,0-0.1,6.3,9.5,7.3l-1-2.2c0,0-6.6-0.9-6.3-5.8H11L10,9.5z"/>
			<path d="M16,5.1h4.6c0,0,2.1,0.1,2.1,2.1c0,0,0.9,9.2-5.4,13.4v2.4c0,0,4.4,1,4.4,3.9H16C16,26.8,16,5,16,5.1z"/>
			<path d="M22.1,9.5h4.4c0,0,1.5,0,1.5,2.5c0,0,0.1,6.3-9.6,7.3l1-2.2c0,0,6.6-0.9,6.3-5.8h-4.7L22.1,9.5z"/>
		</g>

		<g id="reverse-stairs">
			<path d="M25.5,10H7.4c-0.8,0-1.5-0.7-1.5-1.5v0c0-0.8,0.7-1.5,1.5-1.5h18.1c0.8,0,1.5,0.7,1.5,1.5v0
				C26.9,9.3,26.3,10,25.5,10z"/>
			<path d="M22.5,15H7.4c-0.8,0-1.5-0.7-1.5-1.5v0c0-0.8,0.7-1.5,1.5-1.5h15.1c0.8,0,1.5,0.7,1.5,1.5v0
				C24,14.3,23.3,15,22.5,15z"/>
			<path d="M19.5,20H7.4c-0.8,0-1.5-0.7-1.5-1.5v0c0-0.8,0.7-1.5,1.5-1.5h12.1c0.8,0,1.5,0.7,1.5,1.5v0
				C21,19.3,20.3,20,19.5,20z"/>
			<path d="M16.5,25H7.4c-0.8,0-1.5-0.7-1.5-1.5v0c0-0.8,0.7-1.5,1.5-1.5h9.1c0.8,0,1.5,0.7,1.5,1.5v0
				C17.9,24.3,17.3,25,16.5,25z"/>
		</g>

		<g id="hexagon-user">
			<path d="M28.27,22.69V9.91c0-0.69-0.61-1.03-0.61-1.03L16.42,2.41c-0.56-0.33-1.13,0-1.13,0L3.86,9.02
				c-0.42,0.38-0.41,1.03-0.41,1.03v12.61c0,1.05,0.63,1.27,0.63,1.27l11.23,6.47c0.63,0.34,1.16,0,1.16,0l11.38-6.59
				C28.34,23.48,28.27,22.69,28.27,22.69z M25.91,22.22l-2.7,1.53l-5.3-5c0,0-0.52-0.59-0.47-1.11c0,0-0.13-0.73,0.58-1.2
				c0,0,1.92-0.95,1.91-3.69c0,0,0.33-4.63-4.08-4.63c0,0-4-0.69-4,5.05c0,0,0.52,2.61,1.89,3.42c0,0,0.42,0.47,0.39,0.97
				c0,0,0.14,0.88-0.55,1.44l-5.3,4.61L5.81,22.2c0,0-0.03-11.58,0-11.58L15.88,4.8l10.03,5.81V22.22z"/>
		</g>

		<g id="downfacing-equalizer">
			<path d="M22.5,25.1V7c0-0.8,0.7-1.5,1.5-1.5h0c0.8,0,1.5,0.7,1.5,1.5v18.1c0,0.8-0.7,1.5-1.5,1.5h0
				C23.1,26.5,22.5,25.9,22.5,25.1z"/>
			<path d="M17.5,21V7c0-0.8,0.7-1.5,1.5-1.5h0c0.8,0,1.5,0.7,1.5,1.5v14c0,0.8-0.7,1.5-1.5,1.5h0
				C18.1,22.5,17.5,21.8,17.5,21z"/>
			<path d="M12.5,16.9V7c0-0.8,0.7-1.5,1.5-1.5h0c0.8,0,1.5,0.7,1.5,1.5v9.9c0,0.8-0.7,1.5-1.5,1.5h0
				C13.1,18.4,12.5,17.7,12.5,16.9z"/>
			<path d="M7.5,20.9V7c0-0.8,0.7-1.5,1.5-1.5h0c0.8,0,1.5,0.7,1.5,1.5v13.9c0,0.8-0.7,1.5-1.5,1.5h0
				C8.1,22.4,7.5,21.7,7.5,20.9z"/>
		</g>

		<g id="opposing-arrows">
			<g>
				<path d="M11.8,20.6H10c-0.6,0-1-0.5-1-1v-9.3c0-0.6,0.4-1,1-1h1.9c0.6,0,1,0.4,1,1v9.3
					C12.8,20.2,12.4,20.6,11.8,20.6z"/>
				<g>
					<path d="M18.2,13.5l-1.3,1.3c-0.4,0.4-1,0.4-1.4,0L8.9,8.3c-0.4-0.4-0.4-1,0-1.4l1.3-1.3c0.4-0.4,1-0.4,1.4,0
						l6.6,6.6C18.6,12.5,18.6,13.1,18.2,13.5z"/>
					<path d="M12.9,6.8l-1.3-1.3c-0.4-0.4-1-0.4-1.4,0l-6.6,6.6c-0.4,0.4-0.4,1,0,1.4l1.3,1.3c0.4,0.4,1,0.4,1.4,0
						l6.6-6.6C13.3,7.9,13.3,7.2,12.9,6.8z"/>
				</g>
			</g>
			<g>
				<path d="M21.3,14.2h1.4c0.5,0,1,0.4,1,1v8c0,0.5-0.5,1-1,1h-1.4c-0.5,0-1-0.5-1-1v-8C20.3,14.7,20.7,14.2,21.3,14.2
					z"/>
				<g>
					<path d="M15.6,20.4l1-1c0.4-0.4,1-0.4,1.4,0l5.6,5.6c0.4,0.4,0.4,1,0,1.4l-1,1c-0.4,0.4-1,0.4-1.4,0l-5.6-5.6
						C15.2,21.4,15.2,20.8,15.6,20.4z"/>
					<path d="M20.3,26.5l1,1c0.4,0.4,1,0.4,1.4,0l5.6-5.6c0.4-0.4,0.4-1,0-1.4l-1-1c-0.4-0.4-1-0.4-1.4,0L20.3,25
						C19.9,25.4,19.9,26.1,20.3,26.5z"/>
				</g>
			</g>
		</g>
	</defs>
	<defs id="game-subnav">
		<g id="lightning">
<path d="M15.24,18.36l-6.56-5.49c0,0-0.2-0.22,0.03-0.41L25.12,1.85c0,0,0.31-0.09,0.37,0.09c0,0,0.14,0.22-0.02,0.39l-9.69,9.93
	l6.79,6.02c0,0,0.22,0.15,0.05,0.41L6.85,30.15c0,0-0.15,0.12-0.37-0.05c0,0-0.14-0.2,0-0.43L15.24,18.36z"/>
		</g>
		<g id="arrows">
			<rect x="12.8" y="12.2" fill="#010101" width="7" height="7"/>
			<path fill="#010101" d="M20.8,12.2h6l0.9,0.9v5.2l-1,1h-6l3.5-3.5C24.4,15.7,20.9,12.1,20.8,12.2z"/>
			<path fill="#010101" d="M19.9,20.3v6L19,27.2h-5.2l-1-1v-6l3.5,3.5C16.4,23.8,20,20.3,19.9,20.3z"/>
			<path fill="#010101" d="M12.9,11.2v-6l0.9-0.9H19l1,1v6l-3.5-3.5C16.4,7.6,12.8,11.1,12.9,11.2z"/>
			<path fill="#010101" d="M11.8,19.2h-6l-0.9-0.9v-5.2l1-1h6l-3.5,3.5C8.3,15.7,11.8,19.2,11.8,19.2z"/>
		</g>
		<g id="people">
			<path d="M24.6,24.2c-1-2.8-2.7-3.1-5.2-4.1c-0.3-0.1-0.6-0.3-0.8-0.5c-0.5,0-0.8-0.4-1-0.7c-0.9-1.1-1.5-1.4-2.2-2.6
				c-0.5-1-0.4-1.8,0.3-2.6c3-3.2,2-2.4,1.7-6.1c0-0.1,0-0.1,0-0.2l-0.6-2.1c-0.6-1.3-1.9-2.2-3.6-2.3C9.9,2.6,8.4,4,7.9,5.6
				c0,0.1-0.1,0.2-0.1,0.3c-0.6,3-1,5.2,1.4,7.8c0.4,0.5,0.8,1,0.6,1.6c-0.7,2-1.9,2.9-3.4,4.6c-0.1-0.1-0.1-0.1-0.2-0.2
				C6.1,19.8,6,19.9,5.8,20c-0.5,0.3-1.2,0.3-1.8,0.4c-0.4,0.1-0.8,0.3-1.1,0.5c-0.5,0.5-1,1-1.5,1.6C1.2,23,1,23.5,0.8,24l12,6.9h0.3
				h0.4l11.2-6.5C24.7,24.4,24.6,24.3,24.6,24.2z"/>
			<path d="M19,13.7c0,0-1.8,1.5-0.3,2.5l1.4,1.4l3,1.4l1.5,0.8l1,0.8l0.9,1.1l0.9,1.6l3.9-2.6c0-0.1,0-0.2-0.1-0.2
				c-0.8-2.4-2.4-2.7-4.5-3.6c-0.3-0.1-0.5-0.3-0.7-0.5c-0.4,0-0.7-0.3-0.9-0.6c-0.7-1-1.3-1.2-1.9-2.3c-0.4-0.8-0.4-1.6,0.3-2.3
				c1.4-1.5,1.6-3.4,1.4-5.3c0-0.1,0-0.1,0-0.2l-0.5-1.9c-0.6-1.2-1.7-1.9-3.1-2c-1.6-0.1-2.1,0.1-2.9,0.6c0.8,1,1.8,2.7,1.8,5.2
				C20.2,7.6,20.7,10.5,19,13.7z"/>
		</g>
		<g id="marker">
			<circle cx="16.2" cy="13.5" r="3.9"/>
			<g>
				<path d="M16.1,1.8C9.7,1.8,4.4,7.1,4.4,13.5c0,6.4,5.2,11.7,11.7,11.7S27.8,20,27.8,13.5C27.8,7.1,22.6,1.8,16.1,1.8z M16.1,21.6
					C11.6,21.6,8,18,8,13.5s3.6-8.1,8.1-8.1s8.1,3.6,8.1,8.1S20.6,21.6,16.1,21.6z"/>
				<path d="M16.6,31.3l0.1-0.2l3.1-7.9l0.2-0.5c0-0.1,0-0.1,0-0.2c0-0.5-0.3-0.9-0.6-0.9h-6.6c-0.4,0-0.6,0.4-0.6,0.9
					c0,0.1,0,0.2,0,0.3l0.1,0.2l3.2,8l0.1,0.2c0.1,0.2,0.3,0.4,0.5,0.4C16.3,31.7,16.5,31.5,16.6,31.3z"/>
			</g>
		</g>
		<g id="vs">
			<g>
				<path d="M17.9,9.6l-5.6,14.8H9.3L3.7,9.6H7l3.9,10.5l4-10.5H17.9z"/>
			</g>
			<g>
				<path d="M27.3,11.1L25,13.5c-0.7-0.9-1.5-1.3-2.5-1.3c-0.6,0-1,0.2-1.4,0.5c-0.4,0.3-0.6,0.7-0.6,1.2c0,0.5,0.2,0.9,0.6,1.2
					c0.4,0.3,1.2,0.6,2.3,1c1.2,0.4,2.1,0.8,2.6,1.2c1.1,0.8,1.6,1.9,1.6,3.1c0,1.4-0.6,2.5-1.7,3.4c-1,0.8-2.5,1.3-4.4,1.3
					c-2,0-3.7-0.6-5.2-1.8l2.2-2.3c1.1,0.9,2.1,1.4,3.1,1.4c0.7,0,1.2-0.2,1.6-0.6c0.3-0.3,0.4-0.7,0.4-1.1c0-0.7-0.5-1.3-1.4-1.7
					c-0.3-0.2-1.2-0.5-2.5-1c-2.1-0.8-3.1-2.1-3.1-3.9c0-1.5,0.6-2.6,1.9-3.6c1-0.7,2.2-1.1,3.7-1.1c0.9,0,1.8,0.1,2.5,0.4
					C25.8,10,26.5,10.5,27.3,11.1z"/>
			</g>
		</g>
		<g id="play">
			<path d="M7.5,2.6c0,0-0.6,0-1.2,0.1L5,3.9v24.3l1.2,1.2h1.3l21.8-12.8v-1.3L7.5,2.6z"/>
		</g>
		<g id="trophy">
			<path d="M14.9,21.3L4.8,16.3v6.2l10.1,5.2h1.7c-0.1,0.1,0.1-6.4,0.1-6.4H14.9z"/>
			<path d="M6.8,8.2l7.8-3.3h1.9c0-1.5,0-2.5,0-2.5h-1.8L2.4,7.5v4.3l12.4,5.9h1.7c0,0,0-2.6,0-5.7h-1.6L6.8,8.2z"/>
			<path d="M17.1,21.3l10.2-5.1v6.2l-10.1,5.2h-1.7c0.1,0.1-0.1-6.4-0.1-6.4H17.1z"/>
			<path d="M25.2,8.2l-7.8-3.3h-1.9c0-1.5,0-2.5,0-2.5h1.8l12.4,5.1v4.3l-12.4,5.9h-1.7c0,0,0-2.6,0-5.7h1.6L25.2,8.2z"/>
		</g>
		<g id="shield">
			<path d="M25.9,1c0,0-4.2,1.1-9.9,1.1S6.1,1,6.1,1C3.4,0.6,3.2,3.8,3.2,3.8v10.4c0,3,0.5,3.7,0.5,3.7c1.4,2.8,4.4,6.2,4.4,6.2
				c6.5,7.5,8,7,8,7s1.4,0.5,8-7c0,0,3-3.4,4.4-6.2c0,0,0.5-0.7,0.5-3.7V3.8C28.9,3.8,28.6,0.6,25.9,1z M22.1,15.6
				c0,0.4-0.3,0.8-0.8,0.8h-3.1v3.1c0,0.4-0.3,0.8-0.8,0.8h-2.8c-0.4,0-0.8-0.3-0.8-0.8v-3.1h-3.1c-0.4,0-0.8-0.3-0.8-0.8v-2.8
				c0-0.4,0.3-0.8,0.8-0.8h3.1V8.9c0-0.4,0.3-0.8,0.8-0.8h2.8c0.4,0,0.8,0.3,0.8,0.8V12h3.1c0.4,0,0.8,0.3,0.8,0.8V15.6z"/>
		</g>
	</defs>

	<defs id="hero-detail-subnav">
		<g id="sliced-hamburger">
			<path d="M25.5,10c0.8,0,1.4-0.7,1.5-1.5C27,7.7,26.3,7,25.5,7H21v3H25.5z"/>
			<rect x="14" y="7" width="5" height="3"/>
			<path d="M7.4,7C6.6,7,5.9,7.7,5.9,8.5S6.6,10,7.4,10H12V7H7.4z"/>
			<rect x="14" y="12" width="5" height="3"/>
			<path d="M25.5,15c0.8,0,1.4-0.7,1.5-1.5c0-0.8-0.7-1.5-1.5-1.5H21v3H25.5z"/>
			<path d="M7.4,12c-0.8,0-1.5,0.7-1.5,1.5S6.6,15,7.4,15H12v-3H7.4z"/>
			<path d="M25.5,20c0.8,0,1.4-0.7,1.5-1.5c0-0.8-0.7-1.5-1.5-1.5H21v3H25.5z"/>
			<rect x="14" y="17" width="5" height="3"/>
			<path d="M7.4,17c-0.8,0-1.5,0.7-1.5,1.5S6.6,20,7.4,20H12v-3H7.4z"/>
			<path d="M7.4,22c-0.8,0-1.5,0.7-1.5,1.5S6.6,25,7.4,25H12v-3H7.4z"/>
			<rect x="14" y="22" width="5" height="3"/>
			<path d="M25.5,25c0.8,0,1.4-0.7,1.5-1.5c0-0.8-0.7-1.5-1.5-1.5H21v3H25.5z"/>
		</g>
		<g id="sideways-equalizer">
			<path d="M25,8.7H5.5C4.7,8.7,4,8,4,7.2V6.5c0-0.8,0.7-1.5,1.5-1.5H25c0.8,0,1.5,0.7,1.5,1.5v0.7
				C26.5,8,25.8,8.7,25,8.7z"/>
			<path d="M21.3,14.9H5.5c-0.8,0-1.5-0.7-1.5-1.5v-0.7c0-0.8,0.7-1.5,1.5-1.5h15.8c0.8,0,1.5,0.7,1.5,1.5v0.7
				C22.8,14.2,22.1,14.9,21.3,14.9z"/>
			<path d="M28.7,21H5.5C4.7,21,4,20.4,4,19.6v-0.7c0-0.8,0.7-1.5,1.5-1.5h23.2c0.8,0,1.5,0.7,1.5,1.5v0.7
				C30.1,20.4,29.5,21,28.7,21z"/>
			<path d="M21.3,27.2H5.5c-0.8,0-1.5-0.7-1.5-1.5v-0.7c0-0.8,0.7-1.5,1.5-1.5h15.8c0.8,0,1.5,0.7,1.5,1.5v0.7
				C22.8,26.6,22.1,27.2,21.3,27.2z"/>
		</g>
		<g id="camera">
			<path d="M13.3,6.9V5.4c0-1.3-1-2.3-2.3-2.3H9.4c-1.3,0-2.3,1-2.3,2.3v1.5"/>
			<path d="M27.4,6.5h-23c-1.3,0-2.3,1-2.3,2.3v16.1c0,1.3,1,2.3,2.3,2.3h23c1.3,0,2.3-1,2.3-2.3V8.8
		C29.8,7.5,28.7,6.5,27.4,6.5z M16.3,21.9c-3,0-5.4-2.4-5.4-5.4s2.4-5.4,5.4-5.4c3,0,5.4,2.4,5.4,5.4S19.3,21.9,16.3,21.9z"/>
		</g>
	</defs>

	<defs id="media-subnav">
		<g id="paintbrush">
			<path d="M29.48,6.9L26.19,3.6c-1.92-1.27-3.52,0.19-3.52,0.19l-8.54,8.54c-9.19-2.54-9.6,8.46-9.6,8.46
				c-0.48,4.23-3.02,6.08-3.02,6.08c-0.52,0.67,0.33,0.88,0.33,0.88c9.29,1.98,13.71-1.21,13.71-1.21c4.48-2.6,4.29-6.48,4.29-6.48
				l9.73-9.69C30.88,8.44,29.48,6.9,29.48,6.9z M19.06,16.94c-0.9-2.08-2.44-3.19-2.44-3.19c-0.03,0.03,7.9-7.92,7.9-7.92l2.82,2.82
				L19.06,16.94z"/>
		</g>
		<g id="blurb">
			<path d="M13.5,24.4c0,0,0.4,3-2.5,6.1c0,0,4-0.8,6.9-6.1S13.5,24.4,13.5,24.4z"/>
			<path d="M16.1,1.7C8.9,1.7,3,7,3,13.6c0,6.6,5.8,11.9,13,11.9c7.2,0,13-5.3,13-11.9C29.1,7,23.3,1.7,16.1,1.7z M7.6,13.8
				c0-0.7,0.6-1.2,1.2-1.2h10.8c0.7,0,1.2,0.6,1.2,1.2v0.1c0,0.7-0.6,1.2-1.2,1.2H8.8c-0.7,0-1.2-0.6-1.2-1.2V13.8z M23.5,18.3
				c0,0.7-0.6,1.2-1.2,1.2H8.8c-0.7,0-1.2-0.6-1.2-1.2v-0.1c0-0.7,0.6-1.2,1.2-1.2h13.4c0.7,0,1.2,0.6,1.2,1.2V18.3z M23.5,9.5
				c0,0.7-0.6,1.2-1.2,1.2H8.8c-0.7,0-1.2-0.6-1.2-1.2V9.4c0-0.7,0.6-1.2,1.2-1.2h13.4c0.7,0,1.2,0.6,1.2,1.2V9.5z"/>
		</g>
		<g id="bookmark">
			<path d="M6.5,29h19.9l1.3-1.3V9.1l-1.3-1.3h-7.9v10.7l-4-4l-4,4V7.9H7.8V5.2h18.6l-2.7-2.7H7.9L5.2,5.1v22.5
				C5.2,27.7,6.5,29.1,6.5,29z"/>
		</g>
		<g id="camera">
			<path fill="#010101" d="M13.3,6.9V5.4c0-1.3-1-2.3-2.3-2.3H9.4c-1.3,0-2.3,1-2.3,2.3v1.5"/>
			<path fill="#010101" d="M27.4,6.5h-23c-1.3,0-2.3,1-2.3,2.3v16.1c0,1.3,1,2.3,2.3,2.3h23c1.3,0,2.3-1,2.3-2.3V8.8
				C29.8,7.5,28.7,6.5,27.4,6.5z M16.3,21.9c-3,0-5.4-2.4-5.4-5.4s2.4-5.4,5.4-5.4c3,0,5.4,2.4,5.4,5.4S19.3,21.9,16.3,21.9z"/>
		</g>
		<g id="play">
			<path d="M7.5,2.6c0,0-0.6,0-1.2,0.1L5,3.9v24.3l1.2,1.2h1.3l21.8-12.8v-1.3L7.5,2.6z"/>
		</g>
		<g id="monitor">
			<path d="M26.6,1.5H5.3L2.7,4.2v17.6c0,0,2.5,2.5,2.6,2.5h7.5v1.3L9,29.4h5.1h8.8l-3.8-3.8v-1.3h7.6l2.5-2.5V4.2L26.6,1.5z
				 M25.4,18.1l-1.2,1.2H7.7l-1.2-1.2V6.7c0,0,1.2-1.3,1.2-1.3h16.4l1.2,1.2V18.1z"/>
			<circle cx="21" cy="11.1" r="3.2"/>
		</g>
	</defs>
</svg>
